<svg width="163" height="45" viewBox="0 0 163 45" fill="none" xmlns="http://www.w3.org/2000/svg">
<path d="M108.935 22.5C108.935 10.0736 98.7913 0 86.2782 0C85.4247 0 84.5823 0.0468604 83.7534 0.138128C82.4644 2.96514 81.7468 6.10389 81.7468 9.40909C81.7468 21.8355 91.8907 31.9091 104.404 31.9091C105.257 31.9091 106.1 31.8622 106.929 31.771C108.218 28.944 108.935 25.8052 108.935 22.5Z" fill="#211F18"/>
<path d="M100.284 35.1818C87.7712 35.1818 77.6273 25.1082 77.6273 12.6818C77.6273 8.22283 78.9334 4.06678 81.1865 0.570414C73.1851 2.39508 66.801 8.42731 64.5223 16.1964C63.9356 18.1965 63.6211 20.3118 63.6211 22.5C63.6211 33.0668 70.9561 41.9322 80.8455 44.3491C82.586 44.7744 84.4055 45 86.2782 45C94.3012 45 101.35 40.8588 105.376 34.6114C103.739 34.9846 102.035 35.1818 100.284 35.1818Z" fill="#211F18"/>
<path d="M0 21.9027C0 20.4136 0.299897 19.0876 0.899692 17.9247C1.51377 16.7618 2.3849 15.8613 3.51308 15.2231C4.64127 14.5707 5.96939 14.2445 7.49743 14.2445C8.81127 14.2445 9.9823 14.4927 11.0105 14.9891C12.053 15.4713 12.8956 16.1591 13.5382 17.0525C14.1951 17.946 14.6307 18.9884 14.8449 20.1796H9.83235C9.60386 19.6833 9.2754 19.3004 8.84697 19.0309C8.43283 18.7473 7.95442 18.6055 7.41175 18.6055C6.61202 18.6055 5.97653 18.9033 5.50526 19.4989C5.04827 20.0945 4.81978 20.8958 4.81978 21.9027C4.81978 22.9096 5.04827 23.7109 5.50526 24.3065C5.97653 24.9022 6.61202 25.2 7.41175 25.2C7.95442 25.2 8.43283 25.0653 8.84697 24.7958C9.2754 24.5122 9.60386 24.1222 9.83235 23.6258H14.8449C14.6307 24.8171 14.1951 25.8595 13.5382 26.7529C12.8956 27.6464 12.053 28.3413 11.0105 28.8376C9.9823 29.3198 8.81127 29.5609 7.49743 29.5609C5.96939 29.5609 4.64127 29.2418 3.51308 28.6036C2.3849 27.9513 1.51377 27.0436 0.899692 25.8807C0.299897 24.7178 0 23.3918 0 21.9027Z" fill="#211F18"/>
<path d="M15.9145 23.4556C15.9145 22.1935 16.1287 21.1015 16.5571 20.1796C16.9998 19.2436 17.5996 18.5345 18.3565 18.0524C19.1134 17.556 19.9631 17.3078 20.9056 17.3078C21.6911 17.3078 22.3694 17.4709 22.9406 17.7971C23.5119 18.1091 23.9474 18.5416 24.2473 19.0947V17.4567H28.9814V29.4545H24.2473V27.8165C23.9474 28.3696 23.5119 28.8093 22.9406 29.1355C22.3694 29.4475 21.6911 29.6035 20.9056 29.6035C19.9631 29.6035 19.1134 29.3624 18.3565 28.8802C17.5996 28.3838 16.9998 27.6747 16.5571 26.7529C16.1287 25.8169 15.9145 24.7178 15.9145 23.4556ZM24.2473 23.4556C24.2473 22.8175 24.0831 22.3211 23.7547 21.9665C23.4262 21.612 23.0049 21.4347 22.4908 21.4347C21.9767 21.4347 21.5554 21.612 21.2269 21.9665C20.8985 22.3211 20.7343 22.8175 20.7343 23.4556C20.7343 24.0938 20.8985 24.5902 21.2269 24.9447C21.5554 25.2993 21.9767 25.4765 22.4908 25.4765C23.0049 25.4765 23.4262 25.2993 23.7547 24.9447C24.0831 24.5902 24.2473 24.0938 24.2473 23.4556Z" fill="#211F18"/>
<path d="M35.8724 13.7127V29.4545H31.1169V13.7127H35.8724Z" fill="#211F18"/>
<path d="M54.1504 17.3716C55.6927 17.3716 56.8852 17.8325 57.7277 18.7544C58.5846 19.6762 59.013 20.9242 59.013 22.4984V29.4545H54.2789V23.094C54.2789 22.5835 54.1218 22.1864 53.8076 21.9027C53.5077 21.6049 53.1007 21.456 52.5866 21.456C52.0582 21.456 51.6441 21.6049 51.3442 21.9027C51.0443 22.1864 50.8944 22.5835 50.8944 23.094V29.4545H46.1603V23.094C46.1603 22.5835 46.0032 22.1864 45.689 21.9027C45.3891 21.6049 44.9821 21.456 44.468 21.456C43.9396 21.456 43.5255 21.6049 43.2256 21.9027C42.9257 22.1864 42.7757 22.5835 42.7757 23.094V29.4545H38.0202V17.4567H42.7757V19.0735C43.1184 18.5629 43.5826 18.1516 44.1681 17.8396C44.7679 17.5276 45.4676 17.3716 46.2674 17.3716C47.1385 17.3716 47.9097 17.5631 48.5809 17.946C49.2521 18.3147 49.7876 18.8395 50.1875 19.5202C50.6302 18.8962 51.1943 18.3856 51.8797 17.9885C52.5652 17.5773 53.3221 17.3716 54.1504 17.3716Z" fill="#211F18"/>
<path d="M117.234 25.8807H121.818V29.4545H112.478V14.3935H117.234V25.8807Z" fill="#211F18"/>
<path d="M129.055 29.6035C127.841 29.6035 126.749 29.3553 125.778 28.8589C124.806 28.3625 124.042 27.6535 123.485 26.7316C122.943 25.7956 122.672 24.7036 122.672 23.4556C122.672 22.2076 122.943 21.1227 123.485 20.2009C124.042 19.2649 124.806 18.5487 125.778 18.0524C126.749 17.556 127.841 17.3078 129.055 17.3078C130.269 17.3078 131.361 17.556 132.332 18.0524C133.304 18.5487 134.06 19.2649 134.603 20.2009C135.16 21.1227 135.439 22.2076 135.439 23.4556C135.439 24.7036 135.16 25.7956 134.603 26.7316C134.06 27.6535 133.304 28.3625 132.332 28.8589C131.361 29.3553 130.269 29.6035 129.055 29.6035ZM129.055 25.5191C129.498 25.5191 129.869 25.3489 130.169 25.0085C130.469 24.654 130.619 24.1364 130.619 23.4556C130.619 22.7749 130.469 22.2644 130.169 21.924C129.869 21.5695 129.498 21.3922 129.055 21.3922C128.612 21.3922 128.241 21.5695 127.941 21.924C127.641 22.2644 127.491 22.7749 127.491 23.4556C127.491 24.1364 127.634 24.654 127.92 25.0085C128.22 25.3489 128.598 25.5191 129.055 25.5191Z" fill="#211F18"/>
<path d="M143.059 24.966L144.987 17.4567H150.042L146.015 29.4545H140.081L136.054 17.4567H141.11L143.059 24.966Z" fill="#211F18"/>
<path d="M163 23.3493C163 23.6755 162.979 23.9875 162.936 24.2853H155.288C155.36 25.3205 155.795 25.8382 156.595 25.8382C157.109 25.8382 157.48 25.6042 157.709 25.1362H162.743C162.572 25.9871 162.207 26.7529 161.65 27.4336C161.108 28.1002 160.415 28.632 159.573 29.0291C158.744 29.412 157.83 29.6035 156.831 29.6035C155.631 29.6035 154.56 29.3553 153.617 28.8589C152.689 28.3625 151.961 27.6535 151.433 26.7316C150.918 25.7956 150.661 24.7036 150.661 23.4556C150.661 22.2076 150.918 21.1227 151.433 20.2009C151.961 19.2649 152.689 18.5487 153.617 18.0524C154.56 17.556 155.631 17.3078 156.831 17.3078C158.03 17.3078 159.094 17.556 160.022 18.0524C160.965 18.5345 161.693 19.2295 162.207 20.1371C162.736 21.0447 163 22.1155 163 23.3493ZM158.18 22.2218C158.18 21.8247 158.052 21.5269 157.795 21.3284C157.538 21.1156 157.216 21.0093 156.831 21.0093C155.988 21.0093 155.495 21.4135 155.353 22.2218H158.18Z" fill="#211F18"/>
</svg>
